<svg width="14" height="13" viewBox="0 0 14 13" fill="none" xmlns="http://www.w3.org/2000/svg">
<path d="M12.75 6.24969H4.73595M1.90719 6.24969H0.75M1.90719 6.24969C1.90719 5.88782 2.05617 5.54077 2.32136 5.28488C2.58654 5.029 2.94621 4.88525 3.32124 4.88525C3.69627 4.88525 4.05594 5.029 4.32113 5.28488C4.58632 5.54077 4.7353 5.88782 4.7353 6.24969C4.7353 6.61156 4.58632 6.95861 4.32113 7.21449C4.05594 7.47037 3.69627 7.61412 3.32124 7.61412C2.94621 7.61412 2.58654 7.47037 2.32136 7.21449C2.05617 6.95861 1.90719 6.61156 1.90719 6.24969ZM12.75 10.3849H9.02157M9.02157 10.3849C9.02157 10.7469 8.87223 11.0943 8.60698 11.3503C8.34173 11.6062 7.98198 11.75 7.60686 11.75C7.23183 11.75 6.87216 11.6056 6.60698 11.3497C6.34179 11.0939 6.19281 10.7468 6.19281 10.3849M9.02157 10.3849C9.02157 10.023 8.87223 9.67616 8.60698 9.42022C8.34173 9.16428 7.98198 9.0205 7.60686 9.0205C7.23183 9.0205 6.87216 9.16425 6.60698 9.42013C6.34179 9.67601 6.19281 10.0231 6.19281 10.3849M6.19281 10.3849H0.75M12.75 2.11444H10.7359M7.90719 2.11444H0.75M7.90719 2.11444C7.90719 1.75257 8.05617 1.40552 8.32136 1.14963C8.58654 0.893753 8.94621 0.75 9.32124 0.75C9.50694 0.75 9.69082 0.785292 9.86238 0.853862C10.0339 0.922431 10.1898 1.02293 10.3211 1.14963C10.4524 1.27633 10.5566 1.42675 10.6277 1.59229C10.6987 1.75783 10.7353 1.93526 10.7353 2.11444C10.7353 2.29362 10.6987 2.47104 10.6277 2.63659C10.5566 2.80213 10.4524 2.95254 10.3211 3.07924C10.1898 3.20594 10.0339 3.30645 9.86238 3.37501C9.69082 3.44358 9.50694 3.47888 9.32124 3.47888C8.94621 3.47888 8.58654 3.33512 8.32136 3.07924C8.05617 2.82336 7.90719 2.47631 7.90719 2.11444Z" stroke="#0D525C" stroke-width="1.5" stroke-miterlimit="10" stroke-linecap="round"/>
</svg>
